<?xml version="1.0" standalone="no"?>
<!DOCTYPE svg PUBLIC "-//W3C//DTD SVG 20010904//EN"
 "http://www.w3.org/TR/2001/REC-SVG-20010904/DTD/svg10.dtd">
<svg version="1.0" xmlns="http://www.w3.org/2000/svg"
 width="1274.000000pt" height="1280.000000pt" viewBox="0 0 1274.000000 1280.000000"
 preserveAspectRatio="xMidYMid meet">
<metadata>
Created by potrace 1.15, written by Peter Selinger 2001-2017
</metadata>
<g transform="translate(0.000000,1280.000000) scale(0.100000,-0.100000)"
fill="#000000" stroke="none">

<path d="M2268 11129 c-209 -26 -414 -109 -633 -257 -585 -395 -1057 -1074
-1371 -1969 -75 -215 -170 -551 -209 -738 -143 -696 -4 -1525 411 -2452 407
-911 1145 -2008 1977 -2939 298 -334 1029 -940 1675 -1389 702 -488 1385 -857
2017 -1090 146 -54 212 -75 410 -136 68 -20 279 -69 400 -93 243 -46 392 -60
660 -60 308 -1 432 15 744 93 780 197 1418 494 1926 898 136 108 367 337 467
463 158 199 289 425 337 585 50 162 70 394 52 590 -61 640 -404 1174 -991
1540 -239 149 -683 352 -958 439 -449 141 -869 155 -1211 40 -283 -94 -494
-261 -703 -554 -192 -271 -361 -431 -560 -531 -132 -67 -211 -84 -373 -83
-122 1 -152 4 -230 28 -125 38 -280 114 -410 201 -522 350 -1753 1601 -2029
2062 -64 107 -124 245 -153 349 -34 125 -38 309 -9 414 73 267 283 519 635
760 478 327 678 867 565 1524 -59 345 -216 763 -438 1166 -249 453 -561 766
-951 955 -179 86 -326 134 -525 171 -103 18 -415 27 -522 13z m470 -693 c364
-79 662 -310 884 -685 196 -332 363 -750 414 -1036 25 -144 23 -354 -5 -460
-46 -177 -138 -303 -302 -415 -713 -488 -1030 -1126 -894 -1796 44 -217 161
-484 307 -704 317 -477 1294 -1491 1943 -2016 336 -271 649 -430 977 -496 157
-31 416 -31 565 1 455 96 869 402 1202 889 114 166 239 261 406 308 91 25 328
30 452 10 278 -47 609 -169 937 -348 227 -123 349 -212 487 -355 212 -220 321
-465 344 -778 8 -109 -9 -279 -35 -345 -83 -210 -354 -524 -633 -734 -421
-316 -938 -548 -1593 -716 -273 -70 -387 -83 -669 -77 -235 6 -324 16 -547 63
-929 194 -2085 834 -3312 1833 -426 347 -621 530 -864 813 -1077 1257 -1812
2533 -2042 3547 -58 257 -73 393 -74 656 -1 263 5 314 60 545 232 971 671
1747 1209 2136 123 88 272 161 355 173 91 14 341 6 428 -13z"/>

</g>
</svg>
